<svg width="170" height="55" viewBox="0 0 170 55" fill="none" xmlns="http://www.w3.org/2000/svg">
<path d="M70.2647 37.2664C68.7974 35.5195 68.413 28.2874 68.7974 24.2347C68.8262 23.9284 68.7944 23.6194 68.7038 23.3254C68.6132 23.0314 68.4655 22.7582 68.2692 22.5213C68.0729 22.2844 67.8318 22.0886 67.5597 21.9449C67.2877 21.8013 66.99 21.7127 66.6836 21.6842H66.4041C65.8191 21.6858 65.2556 21.9048 64.823 22.2987C64.3904 22.6925 64.1196 23.2331 64.0633 23.8154C64.0633 23.9377 62.9977 36.0436 66.6312 40.3235C66.848 40.5758 67.1157 40.7794 67.4168 40.9209C67.7179 41.0624 68.0455 41.1386 68.3781 41.1445C68.9356 41.148 69.4755 40.9494 69.8979 40.5855C70.3698 40.184 70.6647 39.613 70.7189 38.9958C70.7642 38.6918 70.7473 38.3818 70.6692 38.0845C70.5911 37.7873 70.4535 37.5089 70.2647 37.2664V37.2664Z" fill="#D07CC6"/>
<path d="M66.0548 20.0422C66.387 20.138 66.7358 20.1624 67.0781 20.1136C67.4204 20.0648 67.7485 19.944 68.0406 19.7591C68.3328 19.5742 68.5825 19.3294 68.7732 19.041C68.9638 18.7525 69.0912 18.4269 69.1468 18.0857C69.2369 17.74 69.2554 17.3795 69.2012 17.0264C69.1469 16.6733 69.0211 16.335 68.8313 16.0323C68.6415 15.7296 68.3918 15.469 68.0976 15.2663C67.8034 15.0637 67.4708 14.9233 67.1204 14.8539C66.7891 14.7609 66.4418 14.7394 66.1016 14.7908C65.7614 14.8421 65.436 14.9652 65.1469 15.1519C64.8579 15.3385 64.6118 15.5844 64.425 15.8734C64.2382 16.1623 64.1149 16.4877 64.0633 16.8279C63.9703 17.1701 63.9486 17.5278 63.9997 17.8788C64.0508 18.2297 64.1736 18.5664 64.3604 18.8679C64.5472 19.1694 64.794 19.4292 65.0855 19.6312C65.377 19.8332 65.7069 19.9731 66.0548 20.0422Z" fill="#D07CC6"/>
<path d="M121.134 17.2297C120.97 15.6088 120.489 14.036 119.719 12.6004C118.92 11.1009 117.769 9.81799 116.365 8.86212C114.96 7.84295 113.319 7.19955 111.596 6.99296C109.889 6.83289 108.168 7.09069 106.582 7.74412C103.886 8.93897 101.497 10.731 99.5949 12.9848C98.4994 14.2098 97.5007 15.5181 96.6077 16.8978L96.1011 16.1641C95.2458 15.1321 94.3113 14.1684 93.3061 13.2817C91.1824 11.2815 88.6138 9.81464 85.812 9.00187C84.0645 8.48852 82.2017 8.52308 80.4744 9.10091C78.7472 9.67874 77.2385 10.7721 76.1517 12.2336C74.3299 14.7793 73.3634 17.8377 73.3917 20.968C73.4476 26.5957 75.2011 32.0753 78.4227 36.6899C81.3594 41.1102 85.1848 44.8702 89.6551 47.7302C90.141 48.0248 90.7196 48.1265 91.2767 48.0153C91.8339 47.9041 92.3291 47.5881 92.6647 47.1297C93.0003 46.6712 93.1519 46.1037 93.0896 45.5389C93.0272 44.9742 92.7554 44.4534 92.3279 44.0793V44.0793C88.7176 41.1788 85.6382 37.6738 83.2266 33.7202C80.8948 29.9824 79.6097 25.6868 79.5057 21.2825C79.4506 19.4195 79.9822 17.5862 81.0255 16.0418C81.3897 15.4769 81.9263 15.0445 82.5556 14.8085C83.1849 14.5725 83.8735 14.5456 84.5193 14.7316C86.515 15.2778 88.3844 16.2095 90.022 17.4742C91.8588 18.775 93.5565 20.2619 95.0879 21.9113V21.9113C95.25 22.1579 95.4575 22.3713 95.6993 22.5402C95.9183 22.6839 96.1635 22.783 96.4208 22.8318C96.6782 22.8805 96.9426 22.8781 97.199 22.8245C97.4553 22.771 97.6986 22.6674 97.9149 22.5197C98.1312 22.372 98.3162 22.1831 98.4594 21.9637L98.6166 21.7192C99.9107 19.7497 101.41 17.9227 103.089 16.2689C104.601 14.7023 106.429 13.4756 108.452 12.6703C109.225 12.3393 110.074 12.2246 110.908 12.3384C111.742 12.4523 112.529 12.7904 113.186 13.3167C113.902 13.8437 114.492 14.5227 114.915 15.3049C115.338 16.0871 115.583 16.9532 115.631 17.8411C115.784 20.0305 115.524 22.2292 114.863 24.322C114.198 26.6072 113.345 28.8334 112.312 30.9776C110.228 35.351 107.624 39.4568 104.556 43.2058V43.2058C104.174 43.6886 103.992 44.2991 104.046 44.9121C104.1 45.5251 104.386 46.0943 104.846 46.503C105.306 46.9117 105.905 47.129 106.52 47.1103C107.135 47.0917 107.72 46.8385 108.155 46.4026C111.79 42.4869 114.843 38.0686 117.221 33.2835C118.461 30.8758 119.467 28.3545 120.226 25.7545C121.059 22.9946 121.367 20.1031 121.134 17.2297Z" fill="#D07CC6"/>
<path d="M159.897 25.8069C159.801 25.491 159.684 25.1817 159.548 24.881C159.406 24.5471 159.237 24.2257 159.041 23.9202C158.833 23.5902 158.586 23.2854 158.308 23.0119C158.042 22.724 157.736 22.4768 157.399 22.2782C156.253 21.5479 154.932 21.1378 153.574 21.0903C151.309 20.9967 149.047 21.3224 146.9 22.0511C146.398 22.2017 145.975 22.5457 145.726 23.0077C145.478 23.4696 145.422 24.0115 145.573 24.5142C145.723 25.0169 146.067 25.4391 146.529 25.6881C146.991 25.9371 147.533 25.9924 148.036 25.8418H148.158C149.807 25.3294 151.535 25.1164 153.259 25.2129C153.879 25.2351 154.482 25.422 155.006 25.7545C155.417 26.0823 155.696 26.5475 155.792 27.0646C155.88 27.4042 155.95 27.7482 156.002 28.0953C154.047 27.8962 152.074 27.949 150.132 28.2525C148.681 28.4789 147.314 29.0811 146.167 29.9994C145.822 30.2718 145.522 30.5959 145.276 30.9602C144.997 31.312 144.779 31.7075 144.629 32.1306C144.332 32.923 144.19 33.7651 144.21 34.6112C144.21 35.0304 144.315 35.4497 144.385 35.8514C144.494 36.2897 144.659 36.7123 144.874 37.1092C145.281 37.8989 145.882 38.5722 146.621 39.0657C147.87 39.8088 149.276 40.2458 150.726 40.3409C152.543 40.4412 154.366 40.3357 156.159 40.0265C156.486 40.3366 156.901 40.538 157.347 40.603C157.937 40.6879 158.538 40.5351 159.016 40.1782C159.494 39.8212 159.811 39.2892 159.897 38.6989C160.213 36.6338 160.4 34.5509 160.456 32.4625C160.616 30.2284 160.428 27.983 159.897 25.8069V25.8069ZM151.163 35.9912C150.43 35.9696 149.713 35.7783 149.067 35.4322C148.882 35.3329 148.73 35.1833 148.628 35.0007C148.526 34.8182 148.478 34.6103 148.49 34.4015C148.468 34.1786 148.501 33.9535 148.586 33.7463C148.671 33.5391 148.806 33.3562 148.979 33.2137C149.56 32.8063 150.232 32.5483 150.936 32.4625C152.678 32.226 154.445 32.2613 156.176 32.5673C156.176 33.5456 156.037 34.5413 155.914 35.537C154.364 35.8993 152.772 36.052 151.18 35.9912H151.163Z" fill="#D07CC6"/>
<path d="M45.3368 29.4928C45.2749 28.9809 45.1577 28.4772 44.9874 27.9905C44.6772 27.117 44.2417 26.2932 43.6947 25.5448C42.6153 24.037 41.1141 22.8822 39.3799 22.2258C37.7055 21.6115 35.9055 21.4195 34.1392 21.6668C33.4224 21.7447 32.7146 21.8909 32.0255 22.1035C31.8282 21.8537 31.5827 21.6462 31.3036 21.4931C31.0246 21.3401 30.7176 21.2447 30.4009 21.2126C30.0932 21.1813 29.7824 21.2112 29.4864 21.3007C29.1904 21.3902 28.915 21.5375 28.6763 21.7341C28.4375 21.9306 28.24 22.1725 28.0953 22.4458C27.9506 22.7191 27.8614 23.0184 27.833 23.3263C27.3677 31.225 27.4669 39.1469 28.13 47.0315C28.1697 47.6124 28.4276 48.1568 28.8521 48.5553C29.2766 48.9539 29.8361 49.1771 30.4184 49.1802H30.6455C31.2689 49.1304 31.847 48.8351 32.2526 48.3591C32.4586 48.1206 32.6143 47.8429 32.7103 47.5427C32.8064 47.2425 32.8408 46.9261 32.8116 46.6122V46.6122C32.8116 46.0008 32.5845 43.363 32.4273 39.9566C33.2655 40.09 34.1118 40.1659 34.9603 40.1837H35.1874C36.7692 40.2002 38.3418 39.9401 39.8341 39.4151C41.6076 38.7475 43.1159 37.5212 44.1314 35.9213C45.0857 34.3449 45.5536 32.5219 45.4765 30.6807C45.4512 30.2825 45.4045 29.886 45.3368 29.4928V29.4928ZM32.305 27.0297C34.0009 26.3451 35.8782 26.2527 37.633 26.7677C38.4825 27.0799 39.2208 27.6361 39.7554 28.3664C40.2899 29.0967 40.5969 29.9687 40.6376 30.8728C40.7782 31.7852 40.6016 32.7181 40.1375 33.516C39.6734 34.3139 38.9497 34.9286 38.0872 35.2575C36.2302 35.9477 34.2264 36.1463 32.2701 35.834C32.2002 32.9342 32.1827 29.8422 32.305 27.0297V27.0297Z" fill="#D07CC6"/>
<path d="M167.723 40.6379C167.41 40.6372 167.101 40.568 166.817 40.4353C166.534 40.3025 166.282 40.1093 166.081 39.8693C162.937 36.1834 164.142 21.3523 164.806 15.1334C164.869 14.5381 165.165 13.992 165.63 13.6152C165.861 13.4287 166.125 13.2893 166.41 13.2051C166.694 13.1209 166.992 13.0935 167.287 13.1245C167.581 13.1555 167.867 13.2442 168.128 13.3856C168.388 13.5271 168.618 13.7184 168.805 13.9487C168.991 14.1791 169.131 14.4439 169.215 14.7281C169.299 15.0123 169.326 15.3103 169.296 15.6051C168.212 25.6322 168.317 35.4147 169.505 36.952C169.77 37.2843 169.936 37.6842 169.985 38.1063C170.034 38.5284 169.963 38.9558 169.781 39.3397C169.599 39.7237 169.313 40.0489 168.956 40.2784C168.598 40.5079 168.183 40.6324 167.758 40.6379H167.723Z" fill="#D07CC6"/>
<path d="M99.2805 54.4383C98.8245 54.4364 98.3799 54.2963 98.0052 54.0365L94.2145 51.4686C93.7141 51.1304 93.3686 50.6072 93.254 50.0143C93.1393 49.4213 93.2649 48.8071 93.6031 48.3067C93.9413 47.8064 94.4644 47.4608 95.0574 47.3462C95.6504 47.2315 96.2646 47.3571 96.7649 47.6953L99.0708 49.25L100.818 47.7128C101.269 47.3095 101.861 47.1 102.466 47.1294C103.07 47.1588 103.639 47.4248 104.049 47.87C104.253 48.09 104.41 48.3484 104.513 48.63C104.615 48.9116 104.66 49.2108 104.646 49.5101C104.631 49.8095 104.557 50.1028 104.428 50.3731C104.298 50.6434 104.116 50.8852 103.892 51.0843L100.818 53.8443C100.395 54.2235 99.8482 54.4348 99.2805 54.4383V54.4383Z" fill="#FF5F4E"/>
<path d="M140.751 28.6368C140.645 27.4883 140.313 26.3721 139.773 25.3527C139.192 24.1982 138.28 23.2433 137.153 22.6101C136.074 22.0347 134.881 21.7065 133.659 21.6493C132.608 21.5937 131.553 21.6523 130.515 21.824C129.407 22.03 128.339 22.4134 127.353 22.9595C125.329 24.1457 123.84 26.0665 123.195 28.3224C122.893 29.3675 122.735 30.4488 122.724 31.5366C122.724 32.0607 122.724 32.5848 122.811 33.1088C122.887 33.7014 123.016 34.286 123.195 34.8557C123.926 37.0763 125.458 38.9447 127.493 40.0964C129.383 41.1708 131.545 41.6735 133.716 41.5432C135.886 41.413 137.972 40.6555 139.721 39.3627C140.101 39.0469 140.35 38.6013 140.419 38.1122C140.489 37.6232 140.375 37.1257 140.098 36.7164C139.822 36.307 139.403 36.0151 138.923 35.8972C138.443 35.7793 137.937 35.844 137.502 36.0785V36.0785C136.366 36.7881 135.057 37.173 133.717 37.1915C132.378 37.21 131.059 36.8613 129.903 36.1834C129.013 35.6656 128.305 34.8844 127.877 33.9473L138.638 33.5456C139.088 33.5287 139.519 33.3584 139.859 33.0628C140.199 32.7673 140.427 32.3644 140.507 31.921V31.921C140.726 30.8409 140.808 29.7375 140.751 28.6368V28.6368ZM129.799 26.8899C130.953 26.2804 132.25 25.9909 133.554 26.0514C134.052 26.015 134.551 26.1143 134.997 26.3389C135.443 26.5634 135.82 26.9048 136.087 27.3267C136.43 27.9689 136.626 28.6786 136.664 29.4055H127.929C128.225 28.3809 128.891 27.503 129.799 26.9423V26.8899Z" fill="#D07CC6"/>
<path d="M61.4954 38.4368C61.4019 37.9404 61.1167 37.5008 60.7015 37.2131C60.2863 36.9254 59.7745 36.8128 59.2769 36.8996C58.5234 37.0682 57.7419 37.0682 56.9884 36.8996C56.7561 36.8219 56.5428 36.6962 56.3622 36.5306C56.1816 36.3651 56.0379 36.1635 55.9403 35.9388C55.3592 34.181 55.07 32.3398 55.0843 30.4885C55.0843 29.0386 55.0843 27.4489 55.0843 25.8243C55.9578 25.8243 56.8312 25.8243 57.6872 25.8243H57.6697C58.2257 25.8081 58.7524 25.5717 59.1341 25.1671C59.5158 24.7625 59.7211 24.2229 59.7048 23.6669C59.6886 23.111 59.4522 22.5842 59.0476 22.2026C58.643 21.8209 58.1034 21.6156 57.5474 21.6318L54.997 21.7716C54.997 20.0247 55.1018 18.2778 55.1717 16.6532V16.496C55.1657 15.8974 54.9323 15.3234 54.5188 14.8905C54.1052 14.4576 53.5425 14.1982 52.9448 14.1649C52.3471 14.1315 51.759 14.3268 51.2999 14.711C50.8408 15.0953 50.5451 15.6397 50.4726 16.234C50.2979 18.4001 50.1756 20.409 50.0883 22.2607L48.3414 22.4878C47.8955 22.569 47.4987 22.8203 47.2347 23.1887C46.9707 23.557 46.8601 24.0135 46.9264 24.4618C46.944 24.693 47.0074 24.9185 47.113 25.125C47.2186 25.3315 47.3643 25.5149 47.5415 25.6645C47.7188 25.8141 47.924 25.9269 48.1453 25.9964C48.3666 26.0658 48.5996 26.0904 48.8305 26.0689V26.0689H49.966C49.966 27.8158 49.966 29.4753 50.1057 30.9427C50.1057 32.0083 50.2804 33.1612 50.4726 34.4365C50.6451 35.8473 51.1027 37.2084 51.8177 38.4368C52.2681 39.1761 52.8621 39.8176 53.5646 40.3235C54.5996 41.0113 55.8156 41.3761 57.0583 41.3716C58.1583 41.3564 59.2445 41.1249 60.2551 40.6903C60.7038 40.5344 61.0789 40.2179 61.3079 39.8017C61.537 39.3856 61.6037 38.8993 61.4954 38.4368Z" fill="#D07CC6"/>
<path d="M22.243 15.0286C21.3605 13.1482 19.9915 11.5379 18.2775 10.3644C16.5262 9.26577 14.4926 8.70123 12.4255 8.73984H12.2508C10.1882 8.71529 8.15225 9.20775 6.32887 10.1723C4.52803 11.2492 3.0732 12.8192 2.13635 14.6967C0.638202 18.0071 -0.0847272 21.6158 0.0226261 25.2479C-0.144096 28.9223 0.612644 32.5798 2.2237 35.8864C3.17309 37.6986 4.58292 39.229 6.3114 40.3235C8.04422 41.4063 10.0337 42.0092 12.0761 42.0704H12.8622C14.6951 42.0937 16.5021 41.6359 18.1029 40.7427C19.8977 39.643 21.3497 38.0639 22.2954 36.1834C23.8755 32.8731 24.625 29.2275 24.479 25.5623C24.4828 21.9329 23.7209 18.3435 22.243 15.0286V15.0286ZM19.0986 25.6497C19.2567 28.4871 18.8163 31.3261 17.8059 33.9823C17.3897 35.0622 16.6747 36.0013 15.7446 36.69C14.6833 37.2856 13.4566 37.5187 12.2508 37.3538C11.0359 37.3443 9.84937 36.9851 8.83324 36.319C7.81711 35.653 7.01436 34.7083 6.52103 33.598C5.97908 32.3579 5.62014 31.0457 5.45543 29.7024C5.28305 28.2359 5.21883 26.7587 5.26327 25.2828C5.11067 22.4347 5.59402 19.5883 6.67825 16.9502C7.13607 15.8733 7.9018 14.9556 8.87932 14.3124C9.90979 13.7353 11.0697 13.4287 12.2508 13.4215C13.4291 13.412 14.5807 13.7728 15.5429 14.4529C16.5052 15.1331 17.2295 16.0983 17.6137 17.2122C18.6872 19.8917 19.1928 22.7647 19.0986 25.6497V25.6497Z" fill="#D07CC6"/>
<path d="M139.092 9.2115C139.092 8.60009 139.092 7.98868 139.092 7.3598C139.092 6.73093 139.092 6.10205 139.092 5.61292C139.114 5.4569 139.103 5.29799 139.061 5.14632C139.018 4.99465 138.944 4.85353 138.844 4.73194C138.744 4.61035 138.619 4.51095 138.478 4.44007C138.338 4.36919 138.184 4.32838 138.026 4.32023C137.878 4.30059 137.728 4.31033 137.584 4.34889C137.44 4.38744 137.304 4.45406 137.186 4.54492C137.067 4.63578 136.968 4.74911 136.893 4.87841C136.819 5.00772 136.77 5.15046 136.751 5.29848C136.653 5.98113 136.606 6.67017 136.611 7.3598C136.577 8.03483 136.577 8.71117 136.611 9.38619C136.714 10.759 136.983 12.1142 137.415 13.4215C137.45 13.5522 137.511 13.6747 137.594 13.7819C137.677 13.8891 137.78 13.9789 137.898 14.0463C138.016 14.1136 138.145 14.1571 138.28 14.1743C138.414 14.1915 138.551 14.182 138.681 14.1464C138.812 14.1109 138.935 14.0499 139.042 13.967C139.149 13.8841 139.239 13.7809 139.306 13.6633C139.374 13.5457 139.417 13.416 139.434 13.2816C139.451 13.1472 139.442 13.0107 139.406 12.88V12.88C139.212 11.6665 139.107 10.4404 139.092 9.2115V9.2115Z" fill="#FF5F4E"/>
<path d="M138.026 3.63895C138.177 3.6773 138.334 3.68319 138.488 3.65624C138.641 3.62929 138.787 3.5701 138.916 3.4826C139.045 3.39509 139.153 3.28125 139.235 3.14861C139.316 3.01596 139.369 2.86752 139.389 2.7131C139.44 2.5595 139.46 2.39718 139.447 2.23581C139.434 2.07443 139.388 1.91733 139.313 1.77385C139.238 1.63038 139.135 1.50349 139.01 1.40075C138.885 1.298 138.741 1.22151 138.585 1.17584C138.434 1.13749 138.277 1.1316 138.124 1.15855C137.97 1.1855 137.824 1.24469 137.696 1.33219C137.567 1.4197 137.458 1.53354 137.377 1.66619C137.295 1.79883 137.243 1.94727 137.223 2.10169C137.171 2.25529 137.152 2.41761 137.165 2.57899C137.178 2.74036 137.223 2.89747 137.298 3.04094C137.373 3.18441 137.476 3.3113 137.601 3.41405C137.726 3.51679 137.871 3.59328 138.026 3.63895V3.63895Z" fill="#FF5F4E"/>
<path d="M147.861 0.00542643C147.563 0.0363115 147.289 0.184111 147.099 0.41652C146.909 0.64893 146.819 0.947047 146.848 1.24571C146.848 1.24571 146.988 2.73056 147.128 4.73948C146.695 4.66335 146.257 4.62246 145.817 4.6172C144.989 4.60459 144.166 4.74678 143.389 5.03645C142.521 5.37882 141.786 5.99126 141.293 6.78333C140.83 7.57587 140.611 8.48736 140.664 9.40365V10.0325C140.711 10.2812 140.776 10.5264 140.856 10.7662C141.024 11.2044 141.253 11.6162 141.538 11.989C142.086 12.7222 142.84 13.2756 143.704 13.5787C144.544 13.8737 145.444 13.9577 146.324 13.8233C146.691 13.7649 147.054 13.6773 147.407 13.5612C147.502 13.6874 147.623 13.7917 147.761 13.867C147.9 13.9424 148.053 13.987 148.211 13.998V13.998C148.496 14.0033 148.772 13.8995 148.983 13.708C149.194 13.5164 149.324 13.2515 149.346 12.9673C149.546 8.9836 149.464 4.99081 149.102 1.01862C149.071 0.720113 148.923 0.445973 148.69 0.256117C148.458 0.0662618 148.16 -0.0238685 147.861 0.00542643V0.00542643ZM144.56 11.3427C144.119 11.1919 143.733 10.914 143.45 10.544C143.167 10.1741 143 9.72865 142.97 9.2639C142.895 8.79703 142.981 8.31861 143.212 7.90635C143.444 7.49409 143.808 7.1722 144.245 6.99295C145.191 6.60753 146.223 6.48675 147.232 6.64358C147.232 8.11096 147.337 9.70062 147.232 11.1505C146.388 11.5117 145.447 11.5794 144.56 11.3427Z" fill="#FF5F4E"/>
<path d="M131.912 8.49527C133.275 7.0803 134.672 5.35089 134.742 5.26354C134.835 5.14623 134.903 5.01152 134.943 4.86739C134.982 4.72326 134.993 4.57263 134.973 4.42442C134.954 4.27621 134.905 4.13342 134.829 4.00451C134.753 3.87559 134.652 3.76316 134.533 3.67388C134.3 3.48543 134.003 3.39624 133.705 3.42568C133.408 3.45512 133.134 3.60081 132.943 3.8311C131.864 5.20415 130.697 6.50543 129.449 7.72665C129.449 5.84001 129.589 3.62147 129.816 1.24571C129.841 0.947993 129.749 0.652303 129.56 0.420943C129.371 0.189582 129.099 0.0406151 128.803 0.00542745C128.499 -0.0238443 128.197 0.0681344 127.961 0.261261C127.726 0.454388 127.576 0.732958 127.545 1.03609C127.213 4.86176 126.619 12.2161 128.191 14.0504C128.296 14.1801 128.43 14.2838 128.581 14.3535C128.733 14.4232 128.898 14.4569 129.065 14.4521C129.327 14.45 129.58 14.3574 129.781 14.1901C129.896 14.0957 129.991 13.9794 130.06 13.848C130.129 13.7165 130.171 13.5726 130.184 13.4246C130.197 13.2766 130.181 13.1275 130.136 12.986C130.09 12.8445 130.017 12.7134 129.921 12.6004C129.595 11.809 129.44 10.9578 129.467 10.1024H129.659C129.659 10.1024 131.965 10.1024 133.275 13.5962C133.358 13.8064 133.503 13.9868 133.689 14.1144C133.876 14.242 134.097 14.311 134.323 14.3124C134.467 14.3085 134.609 14.279 134.742 14.225C135.022 14.1158 135.247 13.9 135.369 13.6249C135.49 13.3499 135.497 13.038 135.388 12.7577C134.794 10.9575 133.556 9.43992 131.912 8.49527V8.49527Z" fill="#FF5F4E"/>
<path d="M159.181 9.45606C158.674 8.97548 158.076 8.60118 157.422 8.35519C156.768 8.10919 156.071 7.99645 155.373 8.02362C154.73 8.02275 154.094 7.89203 153.504 7.6393C153.364 7.51702 153.364 7.42968 153.399 7.32487C153.434 7.22005 153.958 6.62611 154.761 6.53877C155.487 6.39325 156.237 6.42926 156.945 6.64358C157.178 6.82684 157.473 6.91196 157.767 6.88081C158.062 6.84966 158.332 6.7047 158.521 6.47683C158.71 6.24897 158.803 5.95623 158.779 5.66104C158.756 5.36586 158.618 5.09158 158.395 4.8967C158.08 4.59973 157.05 3.95338 154.499 4.26782C153.788 4.30645 153.103 4.54726 152.525 4.96194C151.946 5.37662 151.498 5.94791 151.233 6.60864C151.079 7.08539 151.069 7.5971 151.206 8.07907C151.343 8.56103 151.62 8.9916 152.001 9.31631C152.929 9.97281 154.045 10.31 155.181 10.2771C156.019 10.2771 157.137 10.4693 157.434 10.8361C157.456 10.8733 157.467 10.9155 157.467 10.9584C157.467 11.0013 157.456 11.0435 157.434 11.0807C157.329 11.3078 156.893 11.727 155.844 11.8318C154.827 11.9474 153.8 11.72 152.927 11.1855C152.818 11.0573 152.683 10.9548 152.529 10.8855C152.376 10.8161 152.21 10.7817 152.041 10.7846C151.873 10.7875 151.708 10.8278 151.557 10.9024C151.407 10.977 151.274 11.0841 151.17 11.216C151.066 11.348 150.992 11.5014 150.955 11.6652C150.917 11.8291 150.916 11.9993 150.952 12.1635C150.988 12.3277 151.06 12.4818 151.163 12.6148C151.266 12.7478 151.397 12.8562 151.547 12.9324C152.664 13.6936 153.986 14.0958 155.338 14.0853H156.089C156.81 14.0794 157.515 13.8781 158.131 13.5028C158.746 13.1274 159.248 12.5922 159.583 11.9541C159.746 11.54 159.795 11.0895 159.724 10.65C159.654 10.2105 159.466 9.79808 159.181 9.45606V9.45606Z" fill="#FF5F4E"/>
</svg>
