<svg width="52" height="52" viewBox="0 0 52 52" fill="none" xmlns="http://www.w3.org/2000/svg">
<path d="M22.5155 24.1916C21.5251 24.1917 20.5472 24.4121 19.6524 24.8368C18.7577 25.2614 17.9686 25.8797 17.3422 26.6469C16.8928 27.1742 16.5541 27.7865 16.3462 28.4473C16.1383 29.1082 16.0654 29.8041 16.132 30.4937C16.1986 31.1833 16.4032 31.8525 16.7336 32.4614C17.0641 33.0703 17.5137 33.6065 18.0556 34.0381C20.5852 36.1616 25.4366 36.4564 32.8717 32.8828C35.0889 24.9475 33.9717 20.2145 31.4422 18.091C30.9221 17.6328 30.3154 17.2836 29.658 17.0641C29.0005 16.8447 28.3057 16.7594 27.6147 16.8133C26.9237 16.8672 26.2505 17.0593 25.6351 17.3781C25.0197 17.6969 24.4745 18.136 24.0318 18.6694C23.3858 19.42 22.9146 20.3049 22.6524 21.2599C22.3902 22.2149 22.3434 23.2163 22.5155 24.1916Z" fill="#FF8D7F"/>
<path d="M39.8912 5.51503C38.5552 7.77532 37.0929 9.95845 35.5111 12.054C35.0341 12.6947 34.3905 13.9209 33.5148 13.9491C33.3045 13.9741 33.0925 13.9178 32.9224 13.7917C32.7522 13.6655 32.6368 13.479 32.5998 13.2704C32.4246 12.4073 33.3535 11.6104 33.8318 10.9744C35.2814 9.04723 36.8687 6.76369 38.3223 4.38331C38.4724 4.17527 38.699 4.03537 38.9522 3.99438C39.2054 3.9534 39.4646 4.01468 39.6726 4.16476C39.8806 4.31484 40.0206 4.54141 40.0615 4.79463C40.1025 5.04786 40.0412 5.307 39.8912 5.51503Z" fill="#FF8D7F"/>
<path d="M20.3913 41.7069C19.7055 42.6491 19.0004 43.5769 18.3013 44.5079C17.6022 45.439 16.9901 46.5657 16.0597 47.1671C15.9164 47.2771 15.7414 47.3379 15.5607 47.3404C15.3801 47.343 15.2034 47.2871 15.057 47.1812C14.9107 47.0753 14.8024 46.925 14.7483 46.7526C14.6941 46.5803 14.6971 46.395 14.7567 46.2245C15.0854 45.1247 16.0258 44.2291 16.7019 43.3399C17.3779 42.4507 18.106 41.4811 18.8244 40.5646C19.5427 39.648 21.135 40.6876 20.3978 41.6949L20.3913 41.7069Z" fill="#FF8D7F"/>
<path d="M45.6126 23.2598C42.7718 22.9542 41.099 23.9217 39.5323 24.4416C39.3601 24.5151 39.1671 24.5242 38.9886 24.4674C38.8101 24.4105 38.658 24.2915 38.56 24.1319C38.4619 23.9723 38.4245 23.7827 38.4545 23.5978C38.4844 23.4129 38.5799 23.245 38.7233 23.1245C40.4944 21.4053 43.4888 21.0638 45.8286 21.339C47.0608 21.4837 46.8513 23.3925 45.6126 23.2598Z" fill="#FF8D7F"/>
<path d="M42.4679 37.6914C41.5446 36.932 40.4727 36.3741 39.3209 36.0534C38.6066 35.8589 36.2407 35.8223 36.7792 34.511C37.3177 33.1996 39.3913 33.9941 40.2895 34.2859C41.5008 34.6815 42.6265 35.3022 43.6076 36.1153C44.5668 36.9117 43.4411 38.4838 42.4679 37.6914Z" fill="#FF8D7F"/>
<path d="M30.6778 41.193C30.6632 41.9908 30.6407 42.7958 30.6413 43.5941C30.6419 44.3924 30.8033 45.2947 30.1518 45.8705C29.9786 46.0074 29.7591 46.0719 29.5394 46.0504C29.3197 46.029 29.1168 45.9232 28.9734 45.7554C28.406 45.2019 28.6539 44.1005 28.6674 43.3683C28.681 42.6362 28.7059 41.7702 28.7205 40.9725C28.752 40.7139 28.8837 40.478 29.0873 40.3156C29.291 40.1532 29.5503 40.0772 29.8094 40.1041C30.0665 40.139 30.3002 40.2717 30.4619 40.4745C30.6236 40.6773 30.701 40.9347 30.6778 41.193Z" fill="#FF8D7F"/>
<path d="M21.6083 13.502C18.3313 7.95439 18.2817 7.97381 18.1682 7.28858C18.148 7.12474 18.1755 6.95855 18.2473 6.80993C18.3192 6.6613 18.4324 6.53654 18.5733 6.4506C18.7143 6.36465 18.877 6.32117 19.042 6.32535C19.2071 6.32953 19.3674 6.3812 19.5038 6.47418C20.0926 6.911 19.9856 6.83657 23.415 12.7015C23.5182 12.9433 23.5228 13.2159 23.4279 13.4611C23.333 13.7063 23.1461 13.9047 22.9069 14.014C22.6645 14.1162 22.3918 14.1206 22.1462 14.0261C21.9007 13.9316 21.7012 13.7457 21.5898 13.5073L21.6083 13.502Z" fill="#FF8D7F"/>
<path d="M15.1837 21.96C14.1646 21.6815 13.1784 21.2942 12.2421 20.8047C11.3704 20.3446 9.97076 19.7614 9.96808 18.6272C9.98067 18.4951 10.0289 18.3689 10.1075 18.2621C10.1862 18.1552 10.2924 18.0717 10.4148 18.0205C11.3601 17.6959 12.3186 18.6281 13.128 19.0461C14.0105 19.4966 14.9304 19.8698 15.8773 20.1617C16.0008 20.2032 16.1146 20.2692 16.2118 20.3559C16.3091 20.4425 16.3878 20.548 16.4432 20.6659C16.4987 20.7837 16.5296 20.9116 16.5343 21.0418C16.5389 21.172 16.5171 21.3018 16.4702 21.4233C16.4234 21.5448 16.3524 21.6556 16.2615 21.749C16.1707 21.8423 16.0619 21.9163 15.9416 21.9664C15.8214 22.0166 15.6923 22.0419 15.562 22.0408C15.4318 22.0397 15.3031 22.0122 15.1837 21.96Z" fill="#FF8D7F"/>
<path d="M6.96801 34.5436C6.76338 34.4594 6.59915 34.2995 6.50957 34.0972C6.41999 33.8949 6.41198 33.6658 6.4872 33.4577C6.71697 32.6227 7.96955 32.2492 8.69111 31.9494C9.53395 31.6062 10.4028 31.3306 11.2894 31.1252C11.4159 31.1051 11.5452 31.1105 11.6697 31.1409C11.7942 31.1714 11.9114 31.2263 12.0144 31.3026C12.1174 31.3788 12.2042 31.4748 12.2697 31.585C12.3351 31.6951 12.378 31.8172 12.3958 31.9442C12.4259 32.1973 12.3585 32.4525 12.2072 32.6578C12.056 32.8631 11.8322 33.003 11.5815 33.0492C8.25618 33.9639 8.12277 34.8714 6.96801 34.5436Z" fill="#FF8D7F"/>
</svg>
