<svg width="23" height="22" viewBox="0 0 23 22" fill="none" xmlns="http://www.w3.org/2000/svg">
<path d="M18.6316 1.16855L12.5806 3.84025L6.94796 0.372195C6.80424 0.286292 6.63954 0.24186 6.47211 0.243827C6.30469 0.245794 6.14108 0.294081 5.99941 0.383336C5.85775 0.472591 5.74356 0.599332 5.66951 0.749506C5.59547 0.899679 5.56445 1.06742 5.5799 1.23414L6.26277 7.82665L1.22337 12.1148C1.09519 12.2251 1.00022 12.3689 0.949074 12.5301C0.897929 12.6913 0.892628 12.8635 0.933761 13.0275C0.974894 13.1916 1.06084 13.3409 1.18199 13.4589C1.30314 13.5769 1.45472 13.6588 1.61978 13.6956L8.0883 15.0893L10.6033 21.2047C10.6672 21.3621 10.7739 21.4984 10.9114 21.598C11.0489 21.6977 11.2117 21.7567 11.3811 21.7684C11.5505 21.7801 11.7198 21.7439 11.8697 21.6641C12.0196 21.5843 12.1441 21.464 12.2289 21.3168L15.5319 15.5848L22.1266 15.0852C22.296 15.0719 22.4584 15.0115 22.5953 14.9108C22.7323 14.8101 22.8383 14.6731 22.9015 14.5152C22.9646 14.3574 22.9824 14.1851 22.9528 14.0177C22.9232 13.8503 22.8474 13.6946 22.734 13.568L18.3352 8.66149L19.904 2.22754C19.9513 2.05902 19.9488 1.88041 19.8968 1.71327C19.8449 1.54613 19.7456 1.39761 19.6111 1.28564C19.4765 1.17367 19.3125 1.10303 19.1387 1.08225C18.9649 1.06148 18.7888 1.09145 18.6316 1.16855Z" fill="#FF7556"/>
</svg>
