<svg width="24" height="21" viewBox="0 0 24 21" fill="none" xmlns="http://www.w3.org/2000/svg">
<path d="M7.40987 20.5273C2.02269 19.5477 -0.341814 12.8502 1.48753 8.17548C3.52442 2.99783 9.28546 -0.110446 14.7318 0.762708C20.6405 1.70151 24.0503 6.52062 22.8029 11.883C21.5863 17.1047 16.0233 18.9228 11.905 16.004C8.96146 13.9123 8.68798 10.5268 10.0819 9.30432C11.1599 8.35309 12.9147 8.99 12.7755 10.5103C12.733 10.8029 12.6077 11.0772 12.4143 11.3009C12.2208 11.5245 11.9674 11.6881 11.684 11.7723C11.7827 13.1753 13.6779 15.0854 16.3782 15.0509C19.8335 15.0182 21.2644 11.1183 20.5867 8.20145C19.7204 4.48654 15.8791 2.72702 12.3302 2.86225C8.6044 3.00175 4.92352 5.45095 3.53095 8.9513C2.78422 10.8689 2.81967 13.003 3.62967 14.8947C4.43968 16.7865 5.95957 18.2849 7.86265 19.068C8.04024 19.1405 8.18419 19.277 8.26608 19.4505C8.34798 19.624 8.36187 19.8219 8.30502 20.0051C8.24817 20.1883 8.1247 20.3436 7.95898 20.4403C7.79327 20.5369 7.59735 20.568 7.40987 20.5273Z" fill="#70B2F5"/>
</svg>
