<svg width="40" height="48" viewBox="0 0 40 48" fill="none" xmlns="http://www.w3.org/2000/svg">
<path d="M7.7633 4.38265C15.8794 -3.55554 30.0436 0.474989 35.7577 9.17435C42.0738 18.8278 40.4242 32.2996 32.4171 40.4654C23.7446 49.3347 11.5046 49.3244 3.92948 40.7851C-3.44462 32.4663 0.149815 20.8764 10.025 17.4098C17.0924 14.9385 23.1471 18.535 23.5437 22.3587C23.8603 25.3226 20.6789 27.5274 18.2743 25.469C17.8301 25.0464 17.5163 24.5055 17.3699 23.9101C17.2236 23.3148 17.2507 22.69 17.4482 22.1096C14.9564 20.5944 9.45309 21.5101 6.27383 26.119C2.18637 32.003 7.06753 39.0994 12.8142 41.4503C20.1368 44.4391 27.7187 40.051 31.7451 33.8857C35.9763 27.4161 36.2467 18.2532 31.9954 11.7007C29.6469 8.13836 25.9946 5.63963 21.8234 4.7416C17.6522 3.84356 13.2952 4.61793 9.68888 6.89823C9.35321 7.11163 8.94973 7.19147 8.55808 7.12199C8.16642 7.0525 7.81504 6.83874 7.57326 6.52288C7.33149 6.20703 7.21689 5.81202 7.25207 5.41581C7.28725 5.0196 7.46965 4.65097 7.7633 4.38265Z" fill="#70B2F5"/>
</svg>
