<svg width="51" height="51" viewBox="0 0 51 51" fill="none" xmlns="http://www.w3.org/2000/svg">
<path d="M24.9597 16.8098C23.658 16.6052 22.325 16.7912 21.1291 17.3444C19.9333 17.8975 18.9283 18.7929 18.2414 19.9172C17.5545 21.0416 17.2165 22.3444 17.2702 23.6609C17.3238 24.9774 17.7668 26.2484 18.5429 27.3132C19.3191 28.3779 20.3936 29.1885 21.6305 29.6425C22.8674 30.0964 24.2112 30.1733 25.4918 29.8634C26.7724 29.5535 27.9324 28.8708 28.8249 27.9016C29.7175 26.9323 30.3025 25.7201 30.506 24.4184C30.7787 22.674 30.3476 20.8928 29.3076 19.4661C28.2676 18.0394 26.7037 17.084 24.9597 16.8098Z" fill="#FFCD7B"/>
<path d="M42.7605 29.6623C40.8515 29.1157 38.8317 28.6912 37.0294 27.878C35.4809 27.1782 36.1785 24.7302 37.8815 25.0032C39.9671 25.3341 42.0392 26.1657 44.0591 26.78C44.8753 27.027 45.1715 28.1602 44.852 28.8672C44.4634 29.7347 43.5853 29.9049 42.7605 29.6623Z" fill="#FFCD7B"/>
<path d="M33.5737 40.3181C32.461 38.0104 31.015 35.9612 29.6711 33.7943C28.6069 32.1073 30.8103 30.571 32.1258 31.9875C34.0097 34.0336 35.3997 36.6271 36.6008 39.1171C36.6899 39.3169 36.7377 39.5327 36.7411 39.7515C36.7446 39.9703 36.7038 40.1875 36.621 40.39C36.5383 40.5926 36.4154 40.7763 36.2597 40.9301C36.1041 41.0838 35.9189 41.2045 35.7154 41.2848C35.5118 41.3651 35.2941 41.4033 35.0754 41.3972C34.8567 41.391 34.6415 41.3407 34.4427 41.2491C34.244 41.1576 34.0659 41.0267 33.9191 40.8644C33.7723 40.7022 33.6599 40.5119 33.5886 40.305L33.5737 40.3181Z" fill="#FFCD7B"/>
<path d="M22.045 35.1562C22.2349 34.9388 22.5004 34.8017 22.7876 34.7727C23.0748 34.7436 23.3623 34.8247 23.5919 34.9997C24.8791 35.8557 24.6536 37.7351 24.497 39.0743C24.3201 40.4746 23.9382 41.8412 23.3635 43.1303C22.5298 45.0299 19.5848 43.7148 20.4205 41.8087C22.0627 38.0767 20.7625 36.5003 22.045 35.1562Z" fill="#FFCD7B"/>
<path d="M9.32277 31.9543C12.3095 30.2641 13.4004 28.7691 14.9278 29.1434C15.1249 29.1796 15.3113 29.2594 15.4735 29.3772C15.6357 29.4949 15.7694 29.6474 15.8648 29.8236C15.9603 29.9998 16.015 30.1952 16.025 30.3953C16.035 30.5955 16 30.7953 15.9226 30.9801C15.6004 31.9978 14.4542 32.4688 13.6282 33.0245C12.8022 33.5801 12.0468 34.0831 11.2132 34.5504C10.8656 34.7887 10.4401 34.8854 10.0236 34.8206C9.60709 34.7558 9.23102 34.5345 8.97218 34.2019C8.50293 33.5647 8.57501 32.3774 9.31848 31.9565L9.32277 31.9543Z" fill="#FFCD7B"/>
<path d="M9.46309 24.3899C7.80153 23.6181 7.19323 23.4377 6.46455 22.5706C5.82992 21.8125 6.39742 20.3863 7.42189 20.3741C8.6189 20.3597 9.03413 20.6287 10.7847 21.4469C10.9779 21.5337 11.1522 21.6576 11.2975 21.8118C11.4428 21.9659 11.5564 22.1471 11.6316 22.3451C11.7069 22.5431 11.7425 22.754 11.7362 22.9657C11.73 23.1775 11.6822 23.3859 11.5954 23.5792C11.5086 23.7724 11.3846 23.9466 11.2305 24.092C11.0764 24.2373 10.8951 24.3508 10.6971 24.4261C10.4991 24.5014 10.2882 24.5369 10.0765 24.5307C9.86477 24.5245 9.65633 24.4766 9.46309 24.3899Z" fill="#FFCD7B"/>
<path d="M14.2948 16.6118C12.4107 13.649 11.8663 13.0342 12.0733 11.9511C12.1951 11.3133 12.8709 10.6451 13.5765 10.8459C14.8925 11.2206 15.1934 12.0259 16.8437 14.7456C17.0814 15.0871 17.1782 15.507 17.114 15.918C17.0498 16.329 16.8296 16.6994 16.4991 16.9521C16.1608 17.1968 15.7397 17.2983 15.3271 17.2346C14.9145 17.1709 14.5436 16.9471 14.2948 16.6118Z" fill="#FFCD7B"/>
<path d="M24.9323 6.24473C25.6079 5.19693 27.4637 5.79811 27.4976 7.01215C27.5316 8.22618 27.331 8.5845 25.8581 14.025C25.782 14.4423 25.549 14.8145 25.207 15.0654C24.865 15.3162 24.4399 15.4265 24.0191 15.3737C23.2237 15.2408 22.4262 14.3875 22.6705 13.5347C24.2247 7.86238 24.2525 7.29473 24.9323 6.24473Z" fill="#FFCD7B"/>
<path d="M33.2464 15.6667C36.4293 12.8826 35.9511 12.3966 37.8433 11.3514C38.6876 10.884 39.9465 11.8957 39.6858 12.8221C39.3572 14.0275 39.1258 14.3366 37.7264 15.8223C36.9145 16.686 36.0597 17.5084 35.1652 18.2862C34.8163 18.538 34.3825 18.6426 33.9572 18.5775C33.5319 18.5124 33.1493 18.2827 32.8918 17.938C32.6449 17.5873 32.5439 17.1545 32.6101 16.7307C32.6763 16.307 32.9044 15.9255 33.2464 15.6667Z" fill="#FFCD7B"/>
</svg>
