<svg width="50" height="50" viewBox="0 0 50 50" fill="none" xmlns="http://www.w3.org/2000/svg">
<circle cx="25" cy="25" r="25" fill="url(#paint0_linear_603_451)"/>
<path fill-rule="evenodd" clip-rule="evenodd" d="M20 16C17.7909 16 16 17.7909 16 20V30C16 32.2091 17.7909 34 20 34H30C32.2091 34 34 32.2091 34 30V20C34 17.7909 32.2091 16 30 16H20ZM14 20C14 16.6863 16.6863 14 20 14H30C33.3137 14 36 16.6863 36 20V30C36 33.3137 33.3137 36 30 36H20C16.6863 36 14 33.3137 14 30V20Z" fill="white"/>
<path fill-rule="evenodd" clip-rule="evenodd" d="M25.4833 21.9892C24.8591 21.8966 24.2216 22.0032 23.6615 22.2939C23.1014 22.5845 22.6472 23.0443 22.3635 23.608C22.0798 24.1716 21.9811 24.8103 22.0813 25.4333C22.1816 26.0563 22.4757 26.6319 22.9219 27.0781C23.3681 27.5242 23.9436 27.8184 24.5666 27.9186C25.1896 28.0189 25.8283 27.9201 26.392 27.6364C26.9556 27.3527 27.4155 26.8985 27.7061 26.3384C27.9967 25.7783 28.1033 25.1409 28.0108 24.5167C27.9164 23.88 27.6197 23.2905 27.1645 22.8354C26.7094 22.3803 26.12 22.0836 25.4833 21.9892ZM22.7404 20.5186C23.6739 20.0342 24.7363 19.8566 25.7766 20.0108C26.8378 20.1682 27.8202 20.6626 28.5788 21.4212C29.3373 22.1798 29.8318 23.1622 29.9891 24.2233C30.1434 25.2636 29.9657 26.3261 29.4813 27.2596C28.997 28.1931 28.2306 28.9501 27.2912 29.4229C26.3518 29.8957 25.2872 30.0603 24.2489 29.8932C23.2105 29.7262 22.2513 29.2359 21.5077 28.4923C20.764 27.7486 20.2738 26.7894 20.1067 25.7511C19.9396 24.7128 20.1042 23.6482 20.577 22.7088C21.0499 21.7694 21.8069 21.003 22.7404 20.5186Z" fill="white"/>
<path fill-rule="evenodd" clip-rule="evenodd" d="M29.5 19.5C29.5 18.9477 29.9477 18.5 30.5 18.5H30.51C31.0623 18.5 31.51 18.9477 31.51 19.5C31.51 20.0523 31.0623 20.5 30.51 20.5H30.5C29.9477 20.5 29.5 20.0523 29.5 19.5Z" fill="white"/>
<defs>
<linearGradient id="paint0_linear_603_451" x1="41" y1="10" x2="9" y2="44.5" gradientUnits="userSpaceOnUse">
<stop stop-color="#EA6E66"/>
<stop offset="0.9999" stop-color="#E51BE2"/>
<stop offset="1" stop-color="#B62A99"/>
</linearGradient>
</defs>
</svg>
